<mxfile host="app.diagrams.net" modified="2024-01-14T12:29:44.314Z" agent="Mozilla/5.0 (Windows NT 10.0; Win64; x64) AppleWebKit/537.36 (KHTML, like Gecko) Chrome/120.0.0.0 Safari/537.36 Edg/120.0.0.0" etag="YrWcJhAatvov1Fdj7Q8m" version="22.1.18" type="github">
  <diagram name="Page-1" id="MgtDasW34nhUiPIiizhz">
    <mxGraphModel dx="1042" dy="665" grid="1" gridSize="10" guides="1" tooltips="1" connect="1" arrows="1" fold="1" page="1" pageScale="1" pageWidth="827" pageHeight="1169" math="0" shadow="0">
      <root>
        <mxCell id="0" />
        <mxCell id="1" parent="0" />
        <mxCell id="AqtN2Kq2WrDPKJY7MdaL-18" value="Hospital Table" style="swimlane;childLayout=stackLayout;horizontal=1;startSize=50;horizontalStack=0;rounded=1;fontSize=14;fontStyle=0;strokeWidth=2;resizeParent=0;resizeLast=1;shadow=0;dashed=0;align=center;arcSize=4;whiteSpace=wrap;html=1;" vertex="1" parent="1">
          <mxGeometry x="40" y="40" width="220" height="230" as="geometry" />
        </mxCell>
        <mxCell id="AqtN2Kq2WrDPKJY7MdaL-19" value="&lt;ul&gt;&lt;li&gt;Hospital Name&lt;/li&gt;&lt;li&gt;Coordinates&amp;nbsp;&lt;/li&gt;&lt;li&gt;Hospital id (primary key)&lt;/li&gt;&lt;/ul&gt;" style="align=left;strokeColor=none;fillColor=none;spacingLeft=4;fontSize=12;verticalAlign=top;resizable=0;rotatable=0;part=1;html=1;" vertex="1" parent="AqtN2Kq2WrDPKJY7MdaL-18">
          <mxGeometry y="50" width="220" height="180" as="geometry" />
        </mxCell>
        <mxCell id="AqtN2Kq2WrDPKJY7MdaL-20" value="Patient Table" style="swimlane;childLayout=stackLayout;horizontal=1;startSize=50;horizontalStack=0;rounded=1;fontSize=14;fontStyle=0;strokeWidth=2;resizeParent=0;resizeLast=1;shadow=0;dashed=0;align=center;arcSize=4;whiteSpace=wrap;html=1;" vertex="1" parent="1">
          <mxGeometry x="400" y="40" width="290" height="220" as="geometry" />
        </mxCell>
        <mxCell id="AqtN2Kq2WrDPKJY7MdaL-21" value="&lt;ul&gt;&lt;li&gt;Name&lt;/li&gt;&lt;li&gt;Id (primary key)&lt;/li&gt;&lt;li&gt;Hospital id (foreign key)&lt;/li&gt;&lt;li&gt;Medical data&lt;/li&gt;&lt;li&gt;Alcoholism likelihood&lt;/li&gt;&lt;li&gt;Age&lt;/li&gt;&lt;/ul&gt;" style="align=left;strokeColor=none;fillColor=none;spacingLeft=4;fontSize=12;verticalAlign=top;resizable=0;rotatable=0;part=1;html=1;" vertex="1" parent="AqtN2Kq2WrDPKJY7MdaL-20">
          <mxGeometry y="50" width="290" height="170" as="geometry" />
        </mxCell>
        <mxCell id="AqtN2Kq2WrDPKJY7MdaL-26" value="Liver Table" style="swimlane;childLayout=stackLayout;horizontal=1;startSize=50;horizontalStack=0;rounded=1;fontSize=14;fontStyle=0;strokeWidth=2;resizeParent=0;resizeLast=1;shadow=0;dashed=0;align=center;arcSize=4;whiteSpace=wrap;html=1;" vertex="1" parent="1">
          <mxGeometry x="395" y="330" width="300" height="210" as="geometry" />
        </mxCell>
        <mxCell id="AqtN2Kq2WrDPKJY7MdaL-27" value="&lt;ul&gt;&lt;li&gt;Liver medical data&lt;/li&gt;&lt;li&gt;Hospital id (foreign key)&lt;/li&gt;&lt;li&gt;Size&lt;/li&gt;&lt;li&gt;Weight&lt;/li&gt;&lt;/ul&gt;" style="align=left;strokeColor=none;fillColor=none;spacingLeft=4;fontSize=12;verticalAlign=top;resizable=0;rotatable=0;part=1;html=1;" vertex="1" parent="AqtN2Kq2WrDPKJY7MdaL-26">
          <mxGeometry y="50" width="300" height="160" as="geometry" />
        </mxCell>
        <mxCell id="AqtN2Kq2WrDPKJY7MdaL-28" value="" style="edgeStyle=entityRelationEdgeStyle;fontSize=12;html=1;endArrow=ERone;endFill=1;rounded=0;exitX=0.995;exitY=0.307;exitDx=0;exitDy=0;exitPerimeter=0;" edge="1" parent="1" source="AqtN2Kq2WrDPKJY7MdaL-19">
          <mxGeometry width="100" height="100" relative="1" as="geometry">
            <mxPoint x="360" y="360" as="sourcePoint" />
            <mxPoint x="400" y="145" as="targetPoint" />
          </mxGeometry>
        </mxCell>
        <mxCell id="AqtN2Kq2WrDPKJY7MdaL-29" value="" style="edgeStyle=entityRelationEdgeStyle;fontSize=12;html=1;endArrow=ERzeroToOne;endFill=1;rounded=0;exitX=1.005;exitY=0.302;exitDx=0;exitDy=0;exitPerimeter=0;entryX=0;entryY=0.25;entryDx=0;entryDy=0;" edge="1" parent="1" source="AqtN2Kq2WrDPKJY7MdaL-19" target="AqtN2Kq2WrDPKJY7MdaL-27">
          <mxGeometry width="100" height="100" relative="1" as="geometry">
            <mxPoint x="360" y="360" as="sourcePoint" />
            <mxPoint x="460" y="260" as="targetPoint" />
          </mxGeometry>
        </mxCell>
      </root>
    </mxGraphModel>
  </diagram>
</mxfile>
